<svg xmlns="http://www.w3.org/2000/svg" width="21.484" height="20.352" viewBox="0 0 21.484 20.352">
  <path id="Path_10731" data-name="Path 10731" d="M11.367,7.742q-2.7.508-3.789,3.906a10.68,10.68,0,0,0-.547,3.32,2.4,2.4,0,0,0,.02.332q.02.137.059.605h4.258v8.516H3.047V16.57q0-5.781,2.3-8.906A8.554,8.554,0,0,1,11.367,4.07Zm13.164,0a4.38,4.38,0,0,0-3.262,2.422,9.906,9.906,0,0,0-1.113,4.766q0,.234.02.469a2.666,2.666,0,0,0,.1.508h4.258v8.516H16.172V16.57a17.326,17.326,0,0,1,1.953-8.3,7.886,7.886,0,0,1,6.406-4.2Z" transform="translate(-3.047 -4.07)" fill="#000"/>
</svg>
