<svg xmlns="http://www.w3.org/2000/svg" width="237.192" height="183" viewBox="0 0 237.192 183">
  <g id="Group_1269" data-name="Group 1269" transform="translate(-262.956 -217.114)">
    <g id="Group_1266" data-name="Group 1266" transform="translate(262.956 315.326)">
      <g id="Group_1265" data-name="Group 1265">
        <path id="Path_10647" data-name="Path 10647" d="M265.281,414.315h2.964v11.669H283.4V414.315h2.964V440.58H283.4V428.761H268.245V440.58h-2.964Z" transform="translate(-264.118 -413.865)" fill="#fff"/>
        <path id="Path_10648" data-name="Path 10648" d="M317.706,427.073V427a13.4,13.4,0,1,1,26.791-.075V427a13.4,13.4,0,1,1-26.791.075Zm23.714,0V427c0-5.966-4.353-10.844-10.356-10.844s-10.281,4.8-10.281,10.769V427c0,5.966,4.353,10.844,10.356,10.844S341.42,433.039,341.42,427.073Z" transform="translate(-290.314 -413.415)" fill="#fff"/>
        <path id="Path_10649" data-name="Path 10649" d="M383.03,414.315h3l9.568,14.333,9.568-14.333h3V440.58h-2.964V419.305l-9.568,14.071h-.15l-9.568-14.033V440.58H383.03Z" transform="translate(-322.956 -413.865)" fill="#fff"/>
        <path id="Path_10650" data-name="Path 10650" d="M447.38,414.315h18.986v2.7H450.344v8.968h14.333v2.7H450.344v9.193h16.209v2.7H447.38Z" transform="translate(-355.111 -413.865)" fill="#fff"/>
        <path id="Path_10651" data-name="Path 10651" d="M504.947,417.054H496.13v-2.739h20.637v2.739h-8.817V440.58h-3Z" transform="translate(-379.47 -413.865)" fill="#fff"/>
        <path id="Path_10652" data-name="Path 10652" d="M543.3,427.073V427a13.4,13.4,0,1,1,26.791-.075V427a13.4,13.4,0,1,1-26.791.075Zm23.714,0V427c0-5.966-4.353-10.844-10.356-10.844s-10.281,4.8-10.281,10.769V427c0,5.966,4.352,10.844,10.355,10.844S567.019,433.039,567.019,427.073Z" transform="translate(-403.043 -413.415)" fill="#fff"/>
        <path id="Path_10653" data-name="Path 10653" d="M603.38,414.24h3.226l7.5,21.875,7.2-21.95h2.439l7.2,21.95,7.5-21.875h3.114l-9.38,26.453h-2.515l-7.2-21.312-7.242,21.312H612.76Z" transform="translate(-433.062 -413.79)" fill="#fff"/>
        <path id="Path_10654" data-name="Path 10654" d="M691.2,414.315h2.777l16.547,21.05v-21.05h2.89V440.58h-2.365l-16.96-21.537V440.58H691.2Z" transform="translate(-476.947 -413.865)" fill="#fff"/>
        <path id="Path_10655" data-name="Path 10655" d="M262.956,496.073V496a13.232,13.232,0,0,1,13.283-13.583,13.671,13.671,0,0,1,10.243,4.165l-2.026,2.177a11.416,11.416,0,0,0-8.255-3.6c-5.816,0-10.168,4.727-10.168,10.769V496c0,6.078,4.39,10.844,10.168,10.844,3.6,0,5.966-1.388,8.48-3.79l1.951,1.914a13.675,13.675,0,0,1-10.506,4.615C268.547,509.581,262.956,503.615,262.956,496.073Z" transform="translate(-262.956 -447.894)" fill="#fff"/>
        <path id="Path_10656" data-name="Path 10656" d="M317.557,496.073V496a13.4,13.4,0,1,1,26.79-.075V496a13.4,13.4,0,1,1-26.79.075Zm23.714,0V496c0-5.966-4.353-10.844-10.356-10.844s-10.281,4.8-10.281,10.769V496c0,5.966,4.352,10.844,10.355,10.844S341.271,502.039,341.271,496.073Z" transform="translate(-290.24 -447.894)" fill="#fff"/>
        <path id="Path_10657" data-name="Path 10657" d="M382.659,483.315h2.875v23.526h14.341v2.739H382.659Z" transform="translate(-322.77 -448.343)" fill="#fff"/>
        <path id="Path_10658" data-name="Path 10658" d="M425.507,483.315h2.876v23.526h14.341v2.739H425.507Z" transform="translate(-344.181 -448.343)" fill="#fff"/>
        <path id="Path_10659" data-name="Path 10659" d="M467.123,483.315h18.986v2.7H470.087v8.968H484.42v2.7H470.087v9.193H486.3v2.7H467.123Z" transform="translate(-364.976 -448.343)" fill="#fff"/>
        <path id="Path_10660" data-name="Path 10660" d="M511.3,496.073V496a13.232,13.232,0,0,1,13.283-13.583,13.671,13.671,0,0,1,10.243,4.165l-2.026,2.177a11.415,11.415,0,0,0-8.255-3.6c-5.816,0-10.168,4.727-10.168,10.769V496c0,6.078,4.39,10.844,10.168,10.844,3.6,0,5.966-1.388,8.481-3.79l1.951,1.914a13.677,13.677,0,0,1-10.506,4.615C516.889,509.581,511.3,503.615,511.3,496.073Z" transform="translate(-387.05 -447.894)" fill="#fff"/>
        <path id="Path_10661" data-name="Path 10661" d="M573.291,486.054h-8.818v-2.739H585.11v2.739h-8.818V509.58h-3Z" transform="translate(-413.621 -448.343)" fill="#fff"/>
        <path id="Path_10662" data-name="Path 10662" d="M615.1,483.315h2.964V509.58H615.1Z" transform="translate(-438.917 -448.343)" fill="#fff"/>
        <path id="Path_10663" data-name="Path 10663" d="M630.321,496.073V496a13.4,13.4,0,1,1,26.791-.075V496a13.4,13.4,0,1,1-26.791.075Zm23.714,0V496c0-5.966-4.353-10.844-10.356-10.844s-10.281,4.8-10.281,10.769V496c0,5.966,4.352,10.844,10.355,10.844S654.035,502.039,654.035,496.073Z" transform="translate(-446.524 -447.894)" fill="#fff"/>
        <path id="Path_10664" data-name="Path 10664" d="M692.646,483.315h2.776l16.547,21.05v-21.05h2.889V509.58h-2.365l-16.96-21.537V509.58h-2.889Z" transform="translate(-477.667 -448.343)" fill="#fff"/>
      </g>
    </g>
    <g id="Group_1267" data-name="Group 1267" transform="translate(312.12 387.154)">
      <path id="Path_10665" data-name="Path 10665" d="M362.339,566.14v1.436h-1.117V556.983h1.117v4.6a3.373,3.373,0,0,1,2.874-1.669A3.659,3.659,0,0,1,368.8,563.8v.03a3.673,3.673,0,0,1-3.584,3.9A3.385,3.385,0,0,1,362.339,566.14Zm5.312-2.293v-.029a2.7,2.7,0,0,0-2.641-2.9A2.8,2.8,0,0,0,362.3,563.8v.03a2.793,2.793,0,0,0,2.714,2.9A2.648,2.648,0,0,0,367.651,563.847Z" transform="translate(-361.222 -556.983)" fill="#fff"/>
      <path id="Path_10666" data-name="Path 10666" d="M386.065,563.161h1.19l-3.149,7.75c-.639,1.552-1.364,2.119-2.5,2.119a3.409,3.409,0,0,1-1.6-.377l.377-.886a2.347,2.347,0,0,0,1.176.276c.667,0,1.088-.348,1.538-1.407l-3.411-7.474h1.234l2.728,6.255Z" transform="translate(-370.452 -560.07)" fill="#fff"/>
      <path id="Path_10667" data-name="Path 10667" d="M410.318,557.853h1.161l3.7,5.544,3.7-5.544h1.161v10.158h-1.147v-8.228l-3.7,5.442h-.058l-3.7-5.428v8.214h-1.118Z" transform="translate(-385.755 -557.418)" fill="#fff"/>
      <path id="Path_10668" data-name="Path 10668" d="M436.621,557.418H437.9v1.233h-1.277Zm.073,2.873h1.117v7.5h-1.117Z" transform="translate(-398.898 -557.2)" fill="#fff"/>
      <path id="Path_10669" data-name="Path 10669" d="M445.379,566.415v-4.528h-1.045V560.9h1.045v-2.264H446.5V560.9h2.38v.987H446.5v4.383a1.11,1.11,0,0,0,1.263,1.248,2.349,2.349,0,0,0,1.088-.261v.958a2.806,2.806,0,0,1-1.35.32A1.91,1.91,0,0,1,445.379,566.415Z" transform="translate(-402.752 -557.809)" fill="#fff"/>
      <path id="Path_10670" data-name="Path 10670" d="M457.442,566.789v-.029a3.908,3.908,0,0,1,6.85-2.583l-.74.784a3.027,3.027,0,0,0-2.278-1.132,2.769,2.769,0,0,0-2.685,2.9v.03a2.8,2.8,0,0,0,2.758,2.917,3.1,3.1,0,0,0,2.293-1.117l.711.667a3.881,3.881,0,0,1-6.908-2.438Z" transform="translate(-409.302 -559.911)" fill="#fff"/>
      <path id="Path_10671" data-name="Path 10671" d="M476.379,556.983H477.5v4.4a2.843,2.843,0,0,1,2.569-1.466,2.741,2.741,0,0,1,2.873,3v4.658h-1.117v-4.382a2,2,0,0,0-2.076-2.264,2.208,2.208,0,0,0-2.249,2.351v4.3h-1.117Z" transform="translate(-418.765 -556.983)" fill="#fff"/>
      <path id="Path_10672" data-name="Path 10672" d="M494.765,566.775v-.029a3.7,3.7,0,0,1,3.6-3.9c2.22,0,3.5,1.771,3.5,3.962a2.935,2.935,0,0,1-.014.363H495.9a2.621,2.621,0,0,0,2.642,2.54,3.107,3.107,0,0,0,2.365-1.06l.7.624a3.872,3.872,0,0,1-3.091,1.408A3.73,3.73,0,0,1,494.765,566.775Zm5.965-.436a2.47,2.47,0,0,0-2.4-2.554,2.586,2.586,0,0,0-2.438,2.554Z" transform="translate(-427.952 -559.911)" fill="#fff"/>
      <path id="Path_10673" data-name="Path 10673" d="M514.514,556.983h1.117v10.594h-1.117Z" transform="translate(-437.82 -556.983)" fill="#fff"/>
      <path id="Path_10674" data-name="Path 10674" d="M523.591,556.983h1.117v10.594h-1.117Z" transform="translate(-442.356 -556.983)" fill="#fff"/>
      <path id="Path_10675" data-name="Path 10675" d="M547.941,566.4a4.41,4.41,0,0,1-3.323,1.581,2.916,2.916,0,0,1-3.193-2.844v-.029c0-1.349.9-2.321,2.453-2.931a3.291,3.291,0,0,1-1.016-2.235v-.029a2.478,2.478,0,0,1,2.685-2.409,2.35,2.35,0,0,1,2.467,2.293v.029c0,1.292-.914,2.119-2.394,2.641l2.322,2.366a13.321,13.321,0,0,0,1.219-2.264l.943.435a14.194,14.194,0,0,1-1.466,2.555l1.771,1.814-.87.667Zm-.7-.711-2.714-2.8c-1.349.493-1.945,1.32-1.945,2.177v.029a1.959,1.959,0,0,0,2.119,1.916A3.472,3.472,0,0,0,547.245,565.69Zm-.305-5.8v-.029a1.38,1.38,0,0,0-1.437-1.408,1.453,1.453,0,0,0-1.538,1.466v.029c0,.6.247,1.045,1.016,1.872C546.272,561.379,546.939,560.755,546.939,559.885Z" transform="translate(-451.267 -557.244)" fill="#fff"/>
      <path id="Path_10676" data-name="Path 10676" d="M574.774,557.853H579.1a3.731,3.731,0,0,1,2.656.9,2.257,2.257,0,0,1,.653,1.625v.029a2.452,2.452,0,0,1-1.61,2.351c1.2.363,2.176,1.06,2.176,2.453v.029c0,1.742-1.466,2.772-3.686,2.772h-4.514Zm6.473,2.685c0-1-.8-1.654-2.249-1.654h-3.091v3.5h3c1.379,0,2.336-.624,2.336-1.814Zm-2.133,2.859h-3.207v3.584h3.411c1.538,0,2.5-.682,2.5-1.814v-.029C581.813,564.035,580.884,563.4,579.113,563.4Z" transform="translate(-467.932 -557.418)" fill="#fff"/>
      <path id="Path_10677" data-name="Path 10677" d="M595.856,566.775v-.029a3.7,3.7,0,0,1,3.6-3.9c2.22,0,3.5,1.771,3.5,3.962a3.023,3.023,0,0,1-.014.363h-5.951a2.62,2.62,0,0,0,2.641,2.54,3.107,3.107,0,0,0,2.366-1.06l.7.624a3.874,3.874,0,0,1-3.091,1.408A3.73,3.73,0,0,1,595.856,566.775Zm5.965-.436a2.47,2.47,0,0,0-2.394-2.554,2.586,2.586,0,0,0-2.438,2.554Z" transform="translate(-478.466 -559.911)" fill="#fff"/>
      <path id="Path_10678" data-name="Path 10678" d="M614.155,569.576l.566-.8a4.387,4.387,0,0,0,2.6.958c.9,0,1.553-.465,1.553-1.19v-.029c0-.755-.886-1.045-1.872-1.32-1.176-.334-2.482-.74-2.482-2.119v-.029a2.27,2.27,0,0,1,2.554-2.148,5.13,5.13,0,0,1,2.7.827l-.508.842a4.239,4.239,0,0,0-2.22-.726c-.885,0-1.451.465-1.451,1.089v.029c0,.711.929.987,1.93,1.292,1.161.348,2.409.8,2.409,2.148v.029c0,1.422-1.175,2.249-2.67,2.249A5.16,5.16,0,0,1,614.155,569.576Z" transform="translate(-487.61 -559.94)" fill="#fff"/>
      <path id="Path_10679" data-name="Path 10679" d="M630.744,566.415v-4.528H629.7V560.9h1.045v-2.264h1.118V560.9h2.38v.987h-2.38v4.383a1.11,1.11,0,0,0,1.263,1.248,2.348,2.348,0,0,0,1.088-.261v.958a2.8,2.8,0,0,1-1.35.32A1.91,1.91,0,0,1,630.744,566.415Z" transform="translate(-495.377 -557.809)" fill="#fff"/>
    </g>
    <g id="Group_1268" data-name="Group 1268" transform="translate(340.526 217.114)">
      <path id="Path_10680" data-name="Path 10680" d="M541.057,369.56h7.077c3.193,0,5.18-1.415,5.18-3.764v-.061c0-2.288-1.927-3.614-5.6-3.614h-6.656Z" transform="translate(-479.49 -289.573)" fill="#fff"/>
      <path id="Path_10681" data-name="Path 10681" d="M552.139,346.9v-.061c0-2.078-1.656-3.433-4.667-3.433h-6.415v7.258h6.234C550.152,350.66,552.139,349.365,552.139,346.9Z" transform="translate(-479.49 -280.219)" fill="#fff"/>
      <path id="Path_10682" data-name="Path 10682" d="M441.944,358.427l-7.68-11.263v16.97h15.479v-17l-7.679,11.293Z" transform="translate(-426.127 -282.084)" fill="#fff"/>
      <path id="Path_10683" data-name="Path 10683" d="M418,217.114v82.051h5.818V278.159h2.409l7.679,11.5,7.68-11.5H444v21.006h13.438l.344-.064c3.313-.572,5.3-2.882,5.3-5.5a4.322,4.322,0,0,0-2.358-3.845,10.189,10.189,0,0,1,2.769.974,10.351,10.351,0,0,0,4.589,1.333,4.435,4.435,0,0,0,4.52-3.388v10.49l-14.637,0h19.262V278.159h8.974a7.741,7.741,0,0,1,5.511,1.867,4.682,4.682,0,0,1,1.355,3.373v.06a5.088,5.088,0,0,1-3.343,4.879c2.5.753,4.518,2.2,4.518,5.089v.06c0,3.237-2.444,5.284-6.263,5.678h12.081V217.114Zm54.592,61v8.7a1.872,1.872,0,0,0-1.88-1.448,1.723,1.723,0,0,0-1.795,1.667,1.247,1.247,0,0,0,1.257,1.333c1.025,0,1.2-.872,1.435-.872.128,0,.231.077.231.308,0,1.256-1.308,2.461-3.154,2.461a18.23,18.23,0,0,1-4.486-.743,19.826,19.826,0,0,0-4.307-.692c-4.076,0-5.46,2.513-5.46,4a2.17,2.17,0,0,0,2.076,2.384,1.637,1.637,0,0,0,1.82-1.615,1.11,1.11,0,0,0-1.179-1.205c-.872,0-1.128.692-1.41.692-.205,0-.307-.128-.307-.333,0-1.487,1.307-2.769,3.281-2.769,1.563,0,2.769,1.359,2.769,3.435,0,2.9-2.179,4.973-5.332,4.973-3.768,0-5.845-1.871-5.845-4.691,0-3.589,2.794-5.845,6.665-5.845h.231l.205-.846h-.564c-2.128,0-2.948-1.23-2.948-2.563a3.216,3.216,0,0,1,3.256-3.076c2.205,0,2.615.923,2.615,1.231,0,.128-.026.256-.282.282a1.536,1.536,0,0,0-1.512,1.537c0,1.231,1.435,1.871,2.742,1.871,2.513,0,4.666-1.768,4.666-3.921a1.343,1.343,0,0,0-2.541-.646c-.574,1.157.439,1.6.439,2.261,0,.949-.846,1.461-2.461,1.461a2.238,2.238,0,0,1-.9-.18,1.969,1.969,0,0,0,1.154-1.948c0-1.589-1.333-2.794-3.9-2.794-3.282,0-5.076,1.973-5.076,3.794a2.95,2.95,0,0,0,2.768,2.948c-1.967.284-5.723,1.647-6.28,5.171v-14.32h-2.5l14.5-7.639,14.5,7.639Z" transform="translate(-418 -217.114)" fill="#fff"/>
    </g>
  </g>
</svg>
