<svg xmlns="http://www.w3.org/2000/svg" width="236.758" height="60.282" viewBox="0 0 236.758 60.282">
  <g id="Group_1233" data-name="Group 1233" transform="translate(-167.2 -315.265)">
    <g id="Group_1230" data-name="Group 1230" transform="translate(235.322 315.265)">
      <g id="Group_1229" data-name="Group 1229">
        <path id="Path_10060" data-name="Path 10060" d="M361.037,316.164h2.108v8.3h10.778v-8.3h2.108v18.674h-2.108v-8.4H363.145v8.4h-2.108Z" transform="translate(-360.21 -315.844)" fill="#fff"/>
        <path id="Path_10061" data-name="Path 10061" d="M413.462,324.975v-.053a9.524,9.524,0,1,1,19.047-.053v.053a9.524,9.524,0,1,1-19.047.053Zm16.86,0v-.053a7.425,7.425,0,0,0-7.363-7.71,7.335,7.335,0,0,0-7.309,7.657v.053a7.425,7.425,0,0,0,7.362,7.71A7.336,7.336,0,0,0,430.322,324.975Z" transform="translate(-393.987 -315.265)" fill="#fff"/>
        <path id="Path_10062" data-name="Path 10062" d="M478.786,316.164h2.134l6.8,10.191,6.8-10.191h2.134v18.674h-2.107V319.712l-6.8,10h-.107l-6.8-9.977v15.1h-2.054Z" transform="translate(-436.075 -315.844)" fill="#fff"/>
        <path id="Path_10063" data-name="Path 10063" d="M543.136,316.164h13.5v1.921H545.244v6.376h10.19v1.921h-10.19v6.536h11.524v1.92H543.136Z" transform="translate(-477.535 -315.844)" fill="#fff"/>
        <path id="Path_10064" data-name="Path 10064" d="M598.155,318.112h-6.269v-1.948h14.672v1.948h-6.269v16.726h-2.134Z" transform="translate(-508.944 -315.844)" fill="#fff"/>
        <path id="Path_10065" data-name="Path 10065" d="M639.061,324.975v-.053a9.524,9.524,0,1,1,19.047-.053v.053a9.524,9.524,0,1,1-19.047.053Zm16.86,0v-.053a7.425,7.425,0,0,0-7.363-7.71,7.336,7.336,0,0,0-7.309,7.657v.053a7.425,7.425,0,0,0,7.362,7.71A7.336,7.336,0,0,0,655.921,324.975Z" transform="translate(-539.339 -315.265)" fill="#fff"/>
        <path id="Path_10066" data-name="Path 10066" d="M699.136,316.068h2.294l5.336,15.553,5.122-15.606h1.734l5.122,15.606,5.335-15.553h2.214l-6.669,18.807h-1.788l-5.122-15.152-5.149,15.152h-1.761Z" transform="translate(-578.045 -315.748)" fill="#fff"/>
        <path id="Path_10067" data-name="Path 10067" d="M786.96,316.164h1.974L800.7,331.13V316.164h2.055v18.674h-1.681l-12.058-15.312v15.312H786.96Z" transform="translate(-634.629 -315.844)" fill="#fff"/>
        <path id="Path_10068" data-name="Path 10068" d="M358.712,393.975v-.053a9.408,9.408,0,0,1,9.444-9.657,9.721,9.721,0,0,1,7.283,2.961L374,388.773a8.116,8.116,0,0,0-5.869-2.561,7.321,7.321,0,0,0-7.229,7.657v.053c0,4.322,3.121,7.71,7.229,7.71a8.107,8.107,0,0,0,6.029-2.694l1.387,1.361a9.723,9.723,0,0,1-7.47,3.281A9.315,9.315,0,0,1,358.712,393.975Z" transform="translate(-358.712 -359.721)" fill="#fff"/>
        <path id="Path_10069" data-name="Path 10069" d="M413.313,393.975v-.053a9.524,9.524,0,1,1,19.047-.053v.053a9.524,9.524,0,1,1-19.047.053Zm16.86,0v-.053a7.425,7.425,0,0,0-7.363-7.71,7.336,7.336,0,0,0-7.309,7.657v.053a7.424,7.424,0,0,0,7.362,7.71A7.336,7.336,0,0,0,430.173,393.975Z" transform="translate(-393.891 -359.721)" fill="#fff"/>
        <path id="Path_10070" data-name="Path 10070" d="M478.415,385.164h2.044v16.727h10.2v1.947H478.415Z" transform="translate(-435.836 -360.3)" fill="#fff"/>
        <path id="Path_10071" data-name="Path 10071" d="M521.263,385.164h2.045v16.727h10.2v1.947H521.263Z" transform="translate(-463.443 -360.3)" fill="#fff"/>
        <path id="Path_10072" data-name="Path 10072" d="M562.879,385.164h13.5v1.921H564.987v6.376h10.19v1.921h-10.19v6.536h11.524v1.92H562.879Z" transform="translate(-490.255 -360.3)" fill="#fff"/>
        <path id="Path_10073" data-name="Path 10073" d="M607.054,393.975v-.053a9.408,9.408,0,0,1,9.444-9.657,9.72,9.72,0,0,1,7.283,2.961l-1.44,1.547a8.116,8.116,0,0,0-5.869-2.561,7.321,7.321,0,0,0-7.229,7.657v.053c0,4.322,3.121,7.71,7.229,7.71a8.107,8.107,0,0,0,6.029-2.694l1.387,1.361a9.723,9.723,0,0,1-7.469,3.281A9.315,9.315,0,0,1,607.054,393.975Z" transform="translate(-518.717 -359.721)" fill="#fff"/>
        <path id="Path_10074" data-name="Path 10074" d="M666.5,387.112h-6.269v-1.948H674.9v1.948h-6.269v16.726H666.5Z" transform="translate(-552.977 -360.3)" fill="#fff"/>
        <path id="Path_10075" data-name="Path 10075" d="M710.853,385.164h2.108v18.674h-2.108Z" transform="translate(-585.594 -360.3)" fill="#fff"/>
        <path id="Path_10076" data-name="Path 10076" d="M726.077,393.975v-.053a9.524,9.524,0,1,1,19.047-.053v.053a9.524,9.524,0,1,1-19.047.053Zm16.86,0v-.053a7.425,7.425,0,0,0-7.363-7.71,7.336,7.336,0,0,0-7.309,7.657v.053a7.424,7.424,0,0,0,7.362,7.71A7.336,7.336,0,0,0,742.937,393.975Z" transform="translate(-595.403 -359.721)" fill="#fff"/>
        <path id="Path_10077" data-name="Path 10077" d="M788.4,385.164h1.974L802.14,400.13V385.164h2.054v18.674h-1.681l-12.058-15.312v15.312H788.4Z" transform="translate(-635.558 -360.3)" fill="#fff"/>
      </g>
    </g>
    <g id="Group_1231" data-name="Group 1231" transform="translate(236.778 366.333)">
      <path id="Path_10078" data-name="Path 10078" d="M363.6,465.343v1.021H362.8v-7.532h.794V462.1a2.4,2.4,0,0,1,2.044-1.187,2.6,2.6,0,0,1,2.548,2.765v.021a2.611,2.611,0,0,1-2.548,2.776A2.408,2.408,0,0,1,363.6,465.343Zm3.777-1.63v-.021a1.921,1.921,0,0,0-1.878-2.063,1.989,1.989,0,0,0-1.93,2.053v.021a1.985,1.985,0,0,0,1.93,2.063A1.882,1.882,0,0,0,367.376,463.713Z" transform="translate(-362.805 -458.832)" fill="#fff"/>
      <path id="Path_10079" data-name="Path 10079" d="M385.808,465.011h.846l-2.239,5.51c-.454,1.1-.97,1.506-1.775,1.506a2.42,2.42,0,0,1-1.135-.268l.268-.629a1.67,1.67,0,0,0,.836.2c.474,0,.774-.248,1.093-1l-2.424-5.314h.877l1.94,4.447Z" transform="translate(-374.707 -462.813)" fill="#fff"/>
      <path id="Path_10080" data-name="Path 10080" d="M411.9,459.7h.825l2.631,3.942,2.632-3.942h.825v7.223H418v-5.85l-2.631,3.869h-.041l-2.631-3.859v5.84H411.9Z" transform="translate(-394.438 -459.392)" fill="#fff"/>
      <path id="Path_10081" data-name="Path 10081" d="M438.2,459.268h.908v.876H438.2Zm.052,2.043h.794v5.334h-.794Z" transform="translate(-411.384 -459.113)" fill="#fff"/>
      <path id="Path_10082" data-name="Path 10082" d="M446.66,466.016V462.8h-.743v-.7h.743v-1.61h.795v1.61h1.692v.7h-1.692v3.116a.789.789,0,0,0,.9.887,1.671,1.671,0,0,0,.774-.185v.681a2,2,0,0,1-.96.227A1.358,1.358,0,0,1,446.66,466.016Z" transform="translate(-416.354 -459.897)" fill="#fff"/>
      <path id="Path_10083" data-name="Path 10083" d="M459.026,467.5v-.021a2.778,2.778,0,0,1,4.87-1.837l-.526.557a2.154,2.154,0,0,0-1.62-.8,1.968,1.968,0,0,0-1.909,2.063v.021a1.993,1.993,0,0,0,1.96,2.074,2.2,2.2,0,0,0,1.63-.795l.505.475a2.759,2.759,0,0,1-4.911-1.733Z" transform="translate(-424.8 -462.607)" fill="#fff"/>
      <path id="Path_10084" data-name="Path 10084" d="M477.962,458.832h.795v3.126a2.02,2.02,0,0,1,1.826-1.042,1.949,1.949,0,0,1,2.043,2.136v3.312h-.795v-3.116a1.422,1.422,0,0,0-1.475-1.61,1.57,1.57,0,0,0-1.6,1.671v3.054h-.795Z" transform="translate(-437 -458.832)" fill="#fff"/>
      <path id="Path_10085" data-name="Path 10085" d="M496.348,467.488v-.021a2.631,2.631,0,0,1,2.559-2.776,2.539,2.539,0,0,1,2.487,2.817,2.009,2.009,0,0,1-.011.258h-4.23a1.863,1.863,0,0,0,1.878,1.806,2.208,2.208,0,0,0,1.682-.753l.5.444a2.752,2.752,0,0,1-2.2,1A2.651,2.651,0,0,1,496.348,467.488Zm4.241-.31a1.756,1.756,0,0,0-1.7-1.816,1.839,1.839,0,0,0-1.733,1.816Z" transform="translate(-448.846 -462.607)" fill="#fff"/>
      <path id="Path_10086" data-name="Path 10086" d="M516.1,458.832h.794v7.532H516.1Z" transform="translate(-461.57 -458.832)" fill="#fff"/>
      <path id="Path_10087" data-name="Path 10087" d="M525.174,458.832h.795v7.532h-.795Z" transform="translate(-467.418 -458.832)" fill="#fff"/>
      <path id="Path_10088" data-name="Path 10088" d="M547.641,465.679a3.136,3.136,0,0,1-2.363,1.124,2.074,2.074,0,0,1-2.27-2.023v-.02c0-.96.64-1.651,1.744-2.084a2.34,2.34,0,0,1-.722-1.589v-.021a1.762,1.762,0,0,1,1.909-1.713,1.671,1.671,0,0,1,1.754,1.631V461c0,.918-.65,1.506-1.7,1.878l1.651,1.682a9.507,9.507,0,0,0,.866-1.61l.671.309a10.074,10.074,0,0,1-1.042,1.816l1.259,1.29-.619.474Zm-.5-.506-1.93-1.992c-.959.351-1.383.939-1.383,1.548v.02a1.393,1.393,0,0,0,1.507,1.362A2.468,2.468,0,0,0,547.146,465.173Zm-.217-4.127v-.02a.982.982,0,0,0-1.022-1,1.034,1.034,0,0,0-1.094,1.042v.021c0,.423.175.742.722,1.331C546.454,462.109,546.929,461.665,546.929,461.046Z" transform="translate(-478.909 -459.168)" fill="#fff"/>
      <path id="Path_10089" data-name="Path 10089" d="M576.358,459.7h3.074a2.651,2.651,0,0,1,1.888.64,1.6,1.6,0,0,1,.464,1.155v.021a1.744,1.744,0,0,1-1.145,1.671c.856.258,1.547.753,1.547,1.744v.021c0,1.238-1.042,1.971-2.62,1.971h-3.209Zm4.6,1.909c0-.712-.567-1.176-1.6-1.176h-2.2v2.486H579.3c.98,0,1.661-.444,1.661-1.289Zm-1.516,2.033h-2.28v2.548h2.425c1.093,0,1.775-.485,1.775-1.29v-.02C581.362,464.1,580.7,463.644,579.443,463.644Z" transform="translate(-500.396 -459.392)" fill="#fff"/>
      <path id="Path_10090" data-name="Path 10090" d="M597.44,467.488v-.021A2.631,2.631,0,0,1,600,464.691a2.539,2.539,0,0,1,2.486,2.817,2.143,2.143,0,0,1-.01.258h-4.231a1.863,1.863,0,0,0,1.878,1.806,2.208,2.208,0,0,0,1.682-.753l.5.444a2.754,2.754,0,0,1-2.2,1A2.651,2.651,0,0,1,597.44,467.488Zm4.241-.31a1.756,1.756,0,0,0-1.7-1.816,1.839,1.839,0,0,0-1.734,1.816Z" transform="translate(-513.979 -462.607)" fill="#fff"/>
      <path id="Path_10091" data-name="Path 10091" d="M615.739,469.5l.4-.568a3.117,3.117,0,0,0,1.847.681c.64,0,1.1-.33,1.1-.846v-.02c0-.537-.629-.743-1.331-.939-.836-.238-1.764-.526-1.764-1.506v-.021a1.615,1.615,0,0,1,1.816-1.527,3.649,3.649,0,0,1,1.919.588l-.361.6a3.019,3.019,0,0,0-1.579-.516c-.629,0-1.031.33-1.031.774v.02c0,.506.66.7,1.372.918.826.248,1.713.567,1.713,1.527v.021a1.68,1.68,0,0,1-1.9,1.6A3.669,3.669,0,0,1,615.739,469.5Z" transform="translate(-525.769 -462.644)" fill="#fff"/>
      <path id="Path_10092" data-name="Path 10092" d="M632.025,466.016V462.8h-.742v-.7h.742v-1.61h.8v1.61h1.692v.7H632.82v3.116a.789.789,0,0,0,.9.887,1.669,1.669,0,0,0,.774-.185v.681a2,2,0,0,1-.959.227A1.359,1.359,0,0,1,632.025,466.016Z" transform="translate(-535.784 -459.897)" fill="#fff"/>
    </g>
    <g id="Group_1232" data-name="Group 1232" transform="translate(167.2 315.555)">
      <path id="Path_10093" data-name="Path 10093" d="M290.257,466.375h5.031c2.27,0,3.683-1.006,3.683-2.676v-.043c0-1.627-1.37-2.569-3.982-2.569h-4.732Z" transform="translate(-246.485 -409.507)" fill="#fff"/>
      <path id="Path_10094" data-name="Path 10094" d="M188.924,454.128l-5.46-8.008v12.065h11V446.1l-5.459,8.029Z" transform="translate(-177.679 -399.85)" fill="#fff"/>
      <path id="Path_10095" data-name="Path 10095" d="M298.136,444.851v-.043c0-1.477-1.177-2.441-3.318-2.441h-4.56v5.16h4.432C296.723,447.527,298.136,446.607,298.136,444.851Z" transform="translate(-246.485 -397.445)" fill="#fff"/>
      <path id="Path_10096" data-name="Path 10096" d="M167.2,316.079v58.336h4.137V359.481h1.713l5.459,8.179,5.46-8.179h1.713v14.934h9.554l.244-.046c2.355-.407,3.766-2.048,3.766-3.911a3.073,3.073,0,0,0-1.677-2.734,7.245,7.245,0,0,1,1.968.692,7.355,7.355,0,0,0,3.263.948,3.153,3.153,0,0,0,3.214-2.409v7.458H209.3V359.481h6.38a5.5,5.5,0,0,1,3.918,1.327,3.328,3.328,0,0,1,.964,2.4v.043a3.618,3.618,0,0,1-2.377,3.469c1.777.535,3.212,1.563,3.212,3.618v.043c0,2.3-1.738,3.757-4.453,4.037h8.59V316.079Zm38.814,43.373v6.186a1.331,1.331,0,0,0-1.337-1.03,1.225,1.225,0,0,0-1.276,1.185.887.887,0,0,0,.893.948c.729,0,.857-.62,1.021-.62.091,0,.164.055.164.219a2.046,2.046,0,0,1-2.242,1.749,12.963,12.963,0,0,1-3.189-.529,14.114,14.114,0,0,0-3.062-.492c-2.9,0-3.882,1.786-3.882,2.843a1.543,1.543,0,0,0,1.476,1.695,1.164,1.164,0,0,0,1.294-1.148.789.789,0,0,0-.838-.857c-.62,0-.8.492-1,.492-.146,0-.218-.091-.218-.237a2.122,2.122,0,0,1,2.333-1.969c1.112,0,1.968.966,1.968,2.442a3.518,3.518,0,0,1-3.791,3.536c-2.679,0-4.155-1.331-4.155-3.335,0-2.551,1.987-4.155,4.739-4.155h.164l.146-.6h-.4c-1.513,0-2.1-.875-2.1-1.822a2.286,2.286,0,0,1,2.315-2.187c1.568,0,1.859.656,1.859.875,0,.091-.018.182-.2.2a1.093,1.093,0,0,0-1.075,1.093c0,.875,1.021,1.33,1.95,1.33a3.123,3.123,0,0,0,3.317-2.788.955.955,0,0,0-1.807-.46c-.408.822.312,1.14.312,1.608,0,.674-.6,1.039-1.749,1.039a1.591,1.591,0,0,1-.638-.128,1.4,1.4,0,0,0,.82-1.385c0-1.13-.948-1.987-2.771-1.987-2.333,0-3.608,1.4-3.608,2.7a2.1,2.1,0,0,0,1.968,2.1c-1.4.2-4.069,1.171-4.465,3.676V359.452h-1.779l10.312-5.431,10.312,5.431Z" transform="translate(-167.2 -316.079)" fill="#fff"/>
    </g>
  </g>
</svg>
